# xmcd
#
# Track frame offsets:
#	150
#	17470
#	32389
#	47018
#	62515
#	76503
#	93865
#	107664
#	126110
#	148909
#	161470
#	176479
#	191725
#	209391
#
# Disc length: 3117 seconds
#
# Revision: 0
# Processed by: cddbd v1.5.1PL2 Copyright (c) Steve Scherf et al.
# Submitted via: dBpowerAMP V4.0
#
DISCID=a90c2b0e
DTITLE=Garotos de Ouro - Ao Vivo em Porto Alegre
DYEAR=2004
DGENRE=Country
TTITLE0=O Socadão
TTITLE1=Barquinho
TTITLE2=Me Bate Nega Véia
TTITLE3=Pau Que Dá Cavaco
TTITLE4=Marca de Raiz
TTITLE5=Menina Linda
TTITLE6=Chevettão
TTITLE7=Criado em Galpão
TTITLE8=Batendo Água
TTITLE9=De Chão Batido
TTITLE10=Chorando a Saudade
TTITLE11=Um Bagual Corcoveador
TTITLE12=Pra Ouvir o Som
TTITLE13=Carona Na 101
EXTD=
EXTT0=
EXTT1=
EXTT2=
EXTT3=
EXTT4=
EXTT5=
EXTT6=
EXTT7=
EXTT8=
EXTT9=
EXTT10=
EXTT11=
EXTT12=
EXTT13=
PLAYORDER=
